Friends with Benefits 2011 TS REPACK XViD - IMAGiNE
                                               

Ripper ...........: IMAGiNE              
IMDB Rating.......: 6.6/10                            
Video Codec.......: XViD                 
Release Date......: 29/07/11
Audio Codec.......: MP3                  
Theatre Date......: 22/07/11
Audio Bitrate.....: 128                  
Runtime...........: 1h 42mn
Subtitles.........: NIL                  
Language..........: ENGLISH
Resolution........: 720 x 304            
IMDb URL..........: http://www.imdb.com/title/tt1632708/


DETAILS:

Video
ID                               : 0
Format                           : MPEG-4 Visual
Format profile                   : Advanced Simple@L5
Format settings, BVOP            : 2
Format settings, QPel            : No
Format settings, GMC             : No warppoints
Format settings, Matrix          : Default (MPEG)
Muxing mode                      : Packed bitstream
Codec ID                         : XVID
Codec ID/Hint                    : XviD
Duration                         : 1h 42mn
Bit rate                         : 1 773 Kbps
Width                            : 720 pixels
Height                           : 304 pixels
Display aspect ratio             : 2.35:1
Frame rate                       : 25.000 fps
Color space                      : YUV
Chroma subsampling               : 4:2:0
Bit depth                        : 8 bits
Scan type                        : Progressive
Compression mode                 : Lossy
Bits/(Pixel*Frame)               : 0.324
Stream size                      : 1.27 GiB (93%)
Writing library                  : XviD 64

Audio
ID                               : 1
Format                           : MPEG Audio
Format version                   : Version 1
Format profile                   : Layer 3
Mode                             : Joint stereo
Mode extension                   : MS Stereo
Codec ID                         : 55
Codec ID/Hint                    : MP3
Duration                         : 1h 42mn
Bit rate mode                    : Constant
Bit rate                         : 128 Kbps
Channel(s)                       : 2 channels
Sampling rate                    : 44.1 KHz
Compression mode                 : Lossy
Stream size                      : 93.9 MiB (7%)
Alignment                        : Split accross interleaves
Interleave, duration             : 40 ms (1.00 video frame)


SOURCES:

VIDEO: ........ Seks po dryjbe.2011.CamRip.XviD.JRG  Thanks
AUDIO: ........ Thanx Matey

NOTES:
IMAGiNE brings you another release.......
Friends with Benefits TS ........
Ok here we have a nice TS for you,
video was pretty nice
but had some hotspot issues......
so we made a script to sharpen it up,
and toned the hotspots down as well
as adjusting the colors a bit
Audio is nice LiNE
we filtered synced
and muxed to our encode
Enjoy Folks!

sync issues sorted enjoy folks


Screens:

 
http://leetleech.org/images/48160265187959089521.png
 
http://leetleech.org/images/28605650506521456358.png
 
http://leetleech.org/images/96295243416417289150.png


ENJOY!